<svg xmlns:dc="http://purl.org/dc/elements/1.1/" xmlns:cc="http://creativecommons.org/ns#" xmlns:rdf="http://www.w3.org/1999/02/22-rdf-syntax-ns#" xmlns:svg="http://www.w3.org/2000/svg" xmlns="http://www.w3.org/2000/svg" xmlns:sodipodi="http://sodipodi.sourceforge.net/DTD/sodipodi-0.dtd" xmlns:inkscape="http://www.inkscape.org/namespaces/inkscape" viewBox="0 0 16.933333 21.1666675" version="1.1" x="0px" y="0px"><g transform="translate(0,-280.06665)"><path style="color:#000000;font-style:normal;font-variant:normal;font-weight:normal;font-stretch:normal;font-size:medium;line-height:normal;font-family:sans-serif;font-variant-ligatures:normal;font-variant-position:normal;font-variant-caps:normal;font-variant-numeric:normal;font-variant-alternates:normal;font-feature-settings:normal;text-indent:0;text-align:start;text-decoration:none;text-decoration-line:none;text-decoration-style:solid;text-decoration-color:#000000;letter-spacing:normal;word-spacing:normal;text-transform:none;writing-mode:lr-tb;direction:ltr;text-orientation:mixed;dominant-baseline:auto;baseline-shift:baseline;text-anchor:start;white-space:normal;shape-padding:0;clip-rule:nonzero;display:inline;overflow:visible;visibility:visible;opacity:1;isolation:auto;mix-blend-mode:normal;color-interpolation:sRGB;color-interpolation-filters:linearRGB;solid-color:#000000;solid-opacity:1;vector-effect:none;fill:#000000;fill-opacity:1;fill-rule:nonzero;stroke:none;stroke-width:0.52900004;stroke-linecap:round;stroke-linejoin:round;stroke-miterlimit:4;stroke-dasharray:none;stroke-dashoffset:0;stroke-opacity:1;paint-order:normal;color-rendering:auto;image-rendering:auto;shape-rendering:auto;text-rendering:auto;enable-background:accumulate" d="m 7.644928,284.29998 a 0.26452647,0.26452647 0 0 0 -0.2640674,0.26355 v 7.93957 a 0.26452647,0.26452647 0 0 0 0.2640674,0.26355 h 7.9375 a 0.26452647,0.26452647 0 0 0 0.265615,-0.26355 v -7.93957 a 0.26452647,0.26452647 0 0 0 -0.265615,-0.26355 z m 0.2656152,0.52917 h 7.4078178 v 5.44669 l -3.517099,-3.51709 a 0.26460982,0.26460982 0 0 0 -0.191719,-0.078 0.26460982,0.26460982 0 0 0 -0.181383,0.078 l -3.5176168,3.51761 z m 3.7052008,2.49028 3.330031,3.33003 H 8.283648 Z m -3.7052008,3.8592 h 7.4078178 v 1.05885 H 7.9105432 Z"/><path style="color:#000000;font-style:normal;font-variant:normal;font-weight:normal;font-stretch:normal;font-size:medium;line-height:normal;font-family:sans-serif;font-variant-ligatures:normal;font-variant-position:normal;font-variant-caps:normal;font-variant-numeric:normal;font-variant-alternates:normal;font-feature-settings:normal;text-indent:0;text-align:start;text-decoration:none;text-decoration-line:none;text-decoration-style:solid;text-decoration-color:#000000;letter-spacing:normal;word-spacing:normal;text-transform:none;writing-mode:lr-tb;direction:ltr;text-orientation:mixed;dominant-baseline:auto;baseline-shift:baseline;text-anchor:start;white-space:normal;shape-padding:0;clip-rule:nonzero;display:inline;overflow:visible;visibility:visible;opacity:1;isolation:auto;mix-blend-mode:normal;color-interpolation:sRGB;color-interpolation-filters:linearRGB;solid-color:#000000;solid-opacity:1;vector-effect:none;fill:#000000;fill-opacity:1;fill-rule:nonzero;stroke:none;stroke-width:0.52899998;stroke-linecap:round;stroke-linejoin:round;stroke-miterlimit:4;stroke-dasharray:none;stroke-dashoffset:0;stroke-opacity:1;paint-order:normal;color-rendering:auto;image-rendering:auto;shape-rendering:auto;text-rendering:auto;enable-background:accumulate" d="m 2.90847,284.57734 a 0.26452644,0.26452644 0 0 0 -0.26367,0.26562 v 4.49805 H 1.34792 a 0.26452644,0.26452644 0 0 0 -0.18555,0.45117 l 2.61914,2.61914 a 0.26452644,0.26452644 0 0 0 0.37305,0 L 6.7737,289.79218 A 0.26452644,0.26452644 0 0 0 6.58815,289.34101 H 5.29128 v -4.49805 a 0.26452644,0.26452644 0 0 0 -0.26563,-0.26562 z m 0.26562,0.5293 h 1.58789 v 4.49804 a 0.26452644,0.26452644 0 0 0 0.26367,0.26563 h 0.92188 l -1.97852,1.98047 -1.98046,-1.98047 h 0.91992 a 0.26452644,0.26452644 0 0 0 0.26562,-0.26563 z"/><path style="color:#000000;font-style:normal;font-variant:normal;font-weight:normal;font-stretch:normal;font-size:medium;line-height:normal;font-family:sans-serif;font-variant-ligatures:normal;font-variant-position:normal;font-variant-caps:normal;font-variant-numeric:normal;font-variant-alternates:normal;font-feature-settings:normal;text-indent:0;text-align:start;text-decoration:none;text-decoration-line:none;text-decoration-style:solid;text-decoration-color:#000000;letter-spacing:normal;word-spacing:normal;text-transform:none;writing-mode:lr-tb;direction:ltr;text-orientation:mixed;dominant-baseline:auto;baseline-shift:baseline;text-anchor:start;white-space:normal;shape-padding:0;clip-rule:nonzero;display:inline;overflow:visible;visibility:visible;opacity:1;isolation:auto;mix-blend-mode:normal;color-interpolation:sRGB;color-interpolation-filters:linearRGB;solid-color:#000000;solid-opacity:1;vector-effect:none;fill:#000000;fill-opacity:1;fill-rule:nonzero;stroke:none;stroke-width:0.5291667;stroke-linecap:round;stroke-linejoin:round;stroke-miterlimit:4;stroke-dasharray:none;stroke-dashoffset:0;stroke-opacity:1;paint-order:normal;color-rendering:auto;image-rendering:auto;shape-rendering:auto;text-rendering:auto;enable-background:accumulate" d="m 13.73073,285.35859 c -0.58136,0 -1.05859,0.47723 -1.05859,1.05859 0,0.58137 0.47723,1.0586 1.05859,1.0586 0.58137,0 1.0586,-0.47723 1.0586,-1.0586 0,-0.58136 -0.47723,-1.05859 -1.0586,-1.05859 z m 0,0.5293 c 0.29539,0 0.5293,0.23391 0.5293,0.52929 0,0.29539 -0.23391,0.5293 -0.5293,0.5293 -0.29538,0 -0.52929,-0.23391 -0.52929,-0.5293 0,-0.29538 0.23391,-0.52929 0.52929,-0.52929 z"/></g><text x="0" y="31.933334" fill="#000000" font-size="5px" font-weight="bold" font-family="'Helvetica Neue', Helvetica, Arial-Unicode, Arial, Sans-serif">Created by Ranah Pixel Studio</text><text x="0" y="36.933334" fill="#000000" font-size="5px" font-weight="bold" font-family="'Helvetica Neue', Helvetica, Arial-Unicode, Arial, Sans-serif">from the Noun Project</text></svg>