<svg xmlns:dc="http://purl.org/dc/elements/1.1/" xmlns:cc="http://creativecommons.org/ns#" xmlns:rdf="http://www.w3.org/1999/02/22-rdf-syntax-ns#" xmlns:svg="http://www.w3.org/2000/svg" xmlns="http://www.w3.org/2000/svg" xmlns:sodipodi="http://sodipodi.sourceforge.net/DTD/sodipodi-0.dtd" xmlns:inkscape="http://www.inkscape.org/namespaces/inkscape" viewBox="0 0 16.933333 21.1666675" version="1.1" x="0px" y="0px"><g transform="translate(0,-280.06665)"><path style="color:#000000;font-style:normal;font-variant:normal;font-weight:normal;font-stretch:normal;font-size:medium;line-height:normal;font-family:sans-serif;font-variant-ligatures:normal;font-variant-position:normal;font-variant-caps:normal;font-variant-numeric:normal;font-variant-alternates:normal;font-feature-settings:normal;text-indent:0;text-align:start;text-decoration:none;text-decoration-line:none;text-decoration-style:solid;text-decoration-color:#000000;letter-spacing:normal;word-spacing:normal;text-transform:none;writing-mode:lr-tb;direction:ltr;text-orientation:mixed;dominant-baseline:auto;baseline-shift:baseline;text-anchor:start;white-space:normal;shape-padding:0;clip-rule:nonzero;display:inline;overflow:visible;visibility:visible;opacity:1;isolation:auto;mix-blend-mode:normal;color-interpolation:sRGB;color-interpolation-filters:linearRGB;solid-color:#000000;solid-opacity:1;vector-effect:none;fill:#000000;fill-opacity:1;fill-rule:nonzero;stroke:none;stroke-width:0.52900004;stroke-linecap:round;stroke-linejoin:round;stroke-miterlimit:4;stroke-dasharray:none;stroke-dashoffset:0;stroke-opacity:1;paint-order:normal;color-rendering:auto;image-rendering:auto;shape-rendering:auto;text-rendering:auto;enable-background:accumulate" d="m 7.6449334,284.29998 a 0.26452647,0.26452647 0 0 0 -0.2635515,0.26355 v 7.93957 a 0.26452647,0.26452647 0 0 0 0.2635515,0.26355 h 7.9375006 a 0.26452647,0.26452647 0 0 0 0.265615,-0.26355 v -7.93957 a 0.26452647,0.26452647 0 0 0 -0.265615,-0.26355 z m 0.2656152,0.52917 h 7.4083334 v 5.44721 l -3.517614,-3.51761 a 0.26460982,0.26460982 0 0 0 -0.19172,-0.078 0.26460982,0.26460982 0 0 0 -0.181382,0.078 l -3.5176174,3.51761 z m 3.7052014,2.49028 3.33003,3.33003 H 8.2836535 Z m -3.7052014,3.8592 h 7.4083334 v 1.05885 H 7.9105486 Z"/><path style="color:#000000;font-style:normal;font-variant:normal;font-weight:normal;font-stretch:normal;font-size:medium;line-height:normal;font-family:sans-serif;font-variant-ligatures:normal;font-variant-position:normal;font-variant-caps:normal;font-variant-numeric:normal;font-variant-alternates:normal;font-feature-settings:normal;text-indent:0;text-align:start;text-decoration:none;text-decoration-line:none;text-decoration-style:solid;text-decoration-color:#000000;letter-spacing:normal;word-spacing:normal;text-transform:none;writing-mode:lr-tb;direction:ltr;text-orientation:mixed;dominant-baseline:auto;baseline-shift:baseline;text-anchor:start;white-space:normal;shape-padding:0;clip-rule:nonzero;display:inline;overflow:visible;visibility:visible;opacity:1;isolation:auto;mix-blend-mode:normal;color-interpolation:sRGB;color-interpolation-filters:linearRGB;solid-color:#000000;solid-opacity:1;vector-effect:none;fill:#000000;fill-opacity:1;fill-rule:nonzero;stroke:none;stroke-width:0.52899998;stroke-linecap:round;stroke-linejoin:round;stroke-miterlimit:4;stroke-dasharray:none;stroke-dashoffset:0;stroke-opacity:1;paint-order:normal;color-rendering:auto;image-rendering:auto;shape-rendering:auto;text-rendering:auto;enable-background:accumulate" d="m 3.965113,284.57734 a 0.26452644,0.26452644 0 0 0 -0.183594,0.0781 l -2.61914,2.61914 a 0.26452644,0.26452644 0 0 0 0.185547,0.45118 h 1.296875 v 4.49804 a 0.26452644,0.26452644 0 0 0 0.263671,0.26563 H 5.02566 a 0.26452644,0.26452644 0 0 0 0.265625,-0.26563 v -4.49804 H 6.58816 a 0.26452644,0.26452644 0 0 0 0.185547,-0.45118 l -2.619141,-2.61914 a 0.26452644,0.26452644 0 0 0 -0.189453,-0.0781 z m 0.002,0.63867 1.980469,1.98047 H 5.02566 a 0.26452644,0.26452644 0 0 0 -0.263672,0.26562 v 4.49805 H 3.174098 V 287.4621 A 0.26452644,0.26452644 0 0 0 2.908472,287.19648 H 1.988551 Z"/><path style="color:#000000;font-style:normal;font-variant:normal;font-weight:normal;font-stretch:normal;font-size:medium;line-height:normal;font-family:sans-serif;font-variant-ligatures:normal;font-variant-position:normal;font-variant-caps:normal;font-variant-numeric:normal;font-variant-alternates:normal;font-feature-settings:normal;text-indent:0;text-align:start;text-decoration:none;text-decoration-line:none;text-decoration-style:solid;text-decoration-color:#000000;letter-spacing:normal;word-spacing:normal;text-transform:none;writing-mode:lr-tb;direction:ltr;text-orientation:mixed;dominant-baseline:auto;baseline-shift:baseline;text-anchor:start;white-space:normal;shape-padding:0;clip-rule:nonzero;display:inline;overflow:visible;visibility:visible;opacity:1;isolation:auto;mix-blend-mode:normal;color-interpolation:sRGB;color-interpolation-filters:linearRGB;solid-color:#000000;solid-opacity:1;vector-effect:none;fill:#000000;fill-opacity:1;fill-rule:nonzero;stroke:none;stroke-width:0.5291667;stroke-linecap:round;stroke-linejoin:round;stroke-miterlimit:4;stroke-dasharray:none;stroke-dashoffset:0;stroke-opacity:1;paint-order:normal;color-rendering:auto;image-rendering:auto;shape-rendering:auto;text-rendering:auto;enable-background:accumulate" d="m 13.730738,285.35859 c -0.581367,0 -1.058594,0.47723 -1.058594,1.05859 0,0.58137 0.477227,1.0586 1.058594,1.0586 0.581368,0 1.058594,-0.47723 1.058594,-1.0586 0,-0.58136 -0.477226,-1.05859 -1.058594,-1.05859 z m 0,0.5293 c 0.295385,0 0.529297,0.23391 0.529297,0.52929 0,0.29539 -0.233912,0.5293 -0.529297,0.5293 -0.295384,0 -0.529297,-0.23391 -0.529297,-0.5293 0,-0.29538 0.233913,-0.52929 0.529297,-0.52929 z"/></g><text x="0" y="31.933334" fill="#000000" font-size="5px" font-weight="bold" font-family="'Helvetica Neue', Helvetica, Arial-Unicode, Arial, Sans-serif">Created by Ranah Pixel Studio</text><text x="0" y="36.933334" fill="#000000" font-size="5px" font-weight="bold" font-family="'Helvetica Neue', Helvetica, Arial-Unicode, Arial, Sans-serif">from the Noun Project</text></svg>