<svg xmlns="http://www.w3.org/2000/svg" viewBox="0 0 19 22.5" x="0px" y="0px"><path d="M172,2482 L172,2485 L171,2485 L171,2481 L179,2481 L179,2499 L171,2499 L171,2495 L172,2495 L172,2498 L178,2498 L178,2482 L172,2482 Z M169.792893,2489.5 L166.646447,2486.35355 L167.353553,2485.64645 L171.707107,2490 L167.353553,2494.35355 L166.646447,2493.64645 L169.792893,2490.5 L160,2490.5 L160,2489.5 L169.792893,2489.5 Z M160,2484 L160,2483 L165,2483 L165,2484 L160,2484 Z M160,2497 L160,2496 L165,2496 L165,2497 L160,2497 Z" transform="translate(-160 -2481)"/><text x="0" y="33" fill="#000000" font-size="5px" font-weight="bold" font-family="'Helvetica Neue', Helvetica, Arial-Unicode, Arial, Sans-serif">Created by Andrejs Kirma</text><text x="0" y="38" fill="#000000" font-size="5px" font-weight="bold" font-family="'Helvetica Neue', Helvetica, Arial-Unicode, Arial, Sans-serif">from the Noun Project</text></svg>