<svg xmlns="http://www.w3.org/2000/svg" viewBox="0 0 18 22.5" x="0px" y="0px"><path d="M223.207107,2489.5 L233,2489.5 L233,2490.5 L223.207107,2490.5 L226.353553,2493.64645 L225.646447,2494.35355 L221.292893,2490 L225.646447,2485.64645 L226.353553,2486.35355 L223.207107,2489.5 Z M232,2482 L232,2485 L231,2485 L231,2481 L239,2481 L239,2499 L231,2499 L231,2495 L232,2495 L232,2498 L238,2498 L238,2482 L232,2482 Z M223,2482 L223,2481 L228,2481 L228,2482 L223,2482 Z M223,2499 L223,2498 L228,2498 L228,2499 L223,2499 Z" transform="translate(-221 -2481)"/><text x="0" y="33" fill="#000000" font-size="5px" font-weight="bold" font-family="'Helvetica Neue', Helvetica, Arial-Unicode, Arial, Sans-serif">Created by Andrejs Kirma</text><text x="0" y="38" fill="#000000" font-size="5px" font-weight="bold" font-family="'Helvetica Neue', Helvetica, Arial-Unicode, Arial, Sans-serif">from the Noun Project</text></svg>